# AST/ASF file generated using VICON BodyLanguage
# -----------------------------------------------
:version 1.10
:name VICON
:units
  mass 1.0
  length 0.45
  angle deg
:documentation
   .ast/.asf automatically generated from VICON data using
   VICON BodyBuilder and BodyLanguage model FoxedUp or BRILLIANT.MOD
:root
   order TX TY TZ RX RY RZ
   axis XYZ
   position 0 0 0  
   orientation 0 0 0 
:bonedata
  begin
     id 1 
     name lhipjoint
     direction 0.573633 -0.743009 0.344793 
     length 2.46257 
     axis 0 0 0  XYZ
  end
  begin
     id 2 
     name lfemur
     direction 0.34202 -0.939693 0  
     length 7.3842  
     axis 0 0 20  XYZ
    dof rx ry rz
    limits (-160.0 20.0)
           (-70.0 70.0)
           (-60.0 70.0)
  end
  begin
     id 3 
     name ltibia
     direction 0.34202 -0.939693 0   
     length 7.50407   
     axis 0 0 20   XYZ
    dof rx
    limits (-10.0 170.0)
  end
  begin
     id 4 
     name lfoot
     direction 0.110749 -0.304281 0.946123   
     length 1.95925   
     axis -90 7.62852e-016 20   XYZ
    dof rx rz
    limits (-45.0 90.0)
           (-70.0 20.0)
  end
  begin
     id 5 
     name ltoes
     direction 1.53554e-011 -4.21843e-011 1   
     length 0.978318   
     axis -90 7.62852e-016 20   XYZ
    dof rx
    limits (-90.0 20.0)
  end
  begin
     id 6 
     name rhipjoint
     direction -0.488109 -0.791693 0.367385   
     length 2.31113  
     axis 0 0 0  XYZ 
  end
  begin
     id 7 
     name rfemur
     direction -0.34202 -0.939693 0   
     length 7.40965   
     axis 0 0 -20   XYZ
    dof rx ry rz
    limits (-160.0 20.0)
           (-70.0 70.0)
           (-70.0 60.0)
  end
  begin
     id 8 
     name rtibia
     direction -0.34202 -0.939693 0   
     length 7.55548   
     axis 0 0 -20   XYZ
    dof rx
    limits (-10.0 170.0)
 end
 begin
     id 9 
     name rfoot
     direction -0.127594 -0.350561 0.927808   
     length 2.07199  
     axis -90 -7.62852e-016 -20   XYZ
    dof rx rz
    limits (-45.0 90.0)
           (-20.0 70.0)
  end
  begin
     id 10 
     name rtoes
     direction -1.53542e-011 -4.21909e-011 1   
     length 1.02667   
     axis -90 -7.62852e-016 -20   XYZ
    dof rx
    limits (-90.0 20.0)
  end
  begin
     id 11 
     name lowerback
     direction -0.0103342 0.997298 -0.0727278   
     length 2.02836   
     axis 0 0 0   XYZ
    dof rx ry rz
    limits (-20.0 45.0)
           (-30.0 30.0)
           (-30.0 30.0)
  end
  begin
     id 12 
     name upperback
     direction 0.0171146 0.999786 -0.011606   
     length 2.03179   
     axis 0 0 0   XYZ
    dof rx ry rz
    limits (-20.0 45.0)
           (-30.0 30.0)
           (-30.0 30.0)
  end
  begin
     id 13 
     name thorax
     direction 0.0216927 0.999513 0.0224343   
     length 2.03882   
     axis 0 0 0   XYZ
    dof rx ry rz
    limits (-20.0 45.0)
           (-30.0 30.0)
           (-30.0 30.0)
  end
  begin
     id 14 
     name lowerneck
     direction 0.000989287 0.993907 0.110221   
     length 1.75428   
     axis 0 0 0   XYZ
    dof rx ry rz
    limits (-20.0 45.0)
           (-30.0 30.0)
           (-30.0 30.0)
  end
  begin
     id 15 
     name upperneck
     direction -0.0172474 0.994813 -0.100253   
     length 1.77058   
     axis 0 0 0   XYZ
    dof rx ry rz
    limits (-20.0 45.0)
           (-30.0 30.0)
           (-30.0 30.0)
  end
  begin
     id 16
     name head
     direction -0.00486455 0.99894 -0.0457663  
     length 1.77427  
     axis 0 0 0   XYZ
    dof rx ry rz
    limits (-20.0 45.0)
           (-30.0 30.0)
           (-30.0 30.0)
  end
  begin
     id 17 
     name lclavicle
     direction 0.927314 0.333734 -0.169441  
     length 3.97584  
     axis 0 0 0   XYZ
    dof ry rz
    limits (-20.0 10.0)
           (0.0 20.0)
  end
  begin
     id 18 
     name lhumerus
     direction 1 -4.48965e-011 -3.25313e-028   
     length 4.76468   
     axis 180 -30 -90   XYZ
    dof rx ry rz
    limits (-60.0 90.0)
           (-90.0 90.0)
           (-90.0 90.0)
  end
  begin
     id 19
     name lradius
     direction 1 -4.48969e-011 -2.8465e-028   
     length 3.52712   
     axis -180 -30 -90   XYZ
    dof rx
    limits (-10.0 170.0)
  end
  begin
     id 20
     name lwrist
     direction 1 -4.4896e-011 -7.78665e-028   
     length 1.76356   
     axis 1.91374e-015 90 90   XYZ
    dof ry
    limits (-180.0 0.0)
 end
  begin
     id 21 
     name lhand
     direction 1 -4.48959e-011 -1.55733e-027   
     length 0.859564   
     axis 9.9371e-016 90 90   XYZ
    dof rx rz
    limits (-90.0 90.0)
           (-45.0 45.0)
  end
  begin
     id 22 
     name lfingers
     direction 1 -4.48965e-011 -3.11466e-027   
     length 0.693002   
     axis 1.98742e-015 90 90   XYZ
    dof rx
    limits (0.0 90.0)
  end
  begin
     id 23
     name lthumb
     direction 0.707107 -6.34948e-011 0.707107   
     length 0.995017   
     axis -90 45 2.85299e-015   XYZ
    dof rx rz
    limits (-45.0 45.0)
           (-45.0 45.0)
  end
  begin
     id 24 
     name rclavicle
     direction -0.899388 0.348209 -0.264294   
     length 3.68366  
     axis 0 0 0   XYZ 
    dof ry rz
    limits (-10.0 20.0)
           (-20.0 0.0)
  end
  begin
     id 25 
     name rhumerus
     direction -1 -4.48965e-011 -3.01536e-027  
     length 4.90577   
     axis 180 30 90   XYZ
    dof rx ry rz
    limits (-90.0 60.0)
           (-90.0 90.0)
           (-90.0 90.0)
  end
  begin
     id 26 
     name rradius
     direction -1 -4.48966e-011 3.93291e-027   
     length 3.42692   
     axis -180 30 90   XYZ
    dof rx
    limits (-10.0 170.0)
  end
  begin
     id 27 
     name rwrist
     direction -1 -4.48969e-011 -7.78665e-028   
     length 1.71346   
     axis 1.91374e-015 -90 -90   XYZ
    dof ry
    limits (-180.0 0.0)
  end
  begin
     id 28
     name rhand
     direction -1 -4.48967e-011 -1.55733e-027   
     length 0.740957   
     axis 9.9371e-016 -90 -90   XYZ
    dof rx rz
    limits (-90.0 90.0)
           (-45.0 45.0)
  end
  begin
     id 29
     name rfingers
     direction -1 -4.48949e-011 -3.11466e-027   
     length 0.597378   
     axis 1.98742e-015 -90 -90   XYZ
    dof rx
    limits (0.0 90.0)
  end
  begin
     id 30
     name rthumb
     direction -0.707107 -6.34931e-011 0.707107   
     length 0.857719   
     axis -90 -45 -2.85299e-015   XYZ
    dof rx rz
    limits (-45.0 45.0)
           (-45.0 45.0)
  end
:hierarchy
  begin
    root lhipjoint rhipjoint lowerback
    lhipjoint lfemur
    lfemur ltibia
    ltibia lfoot
    lfoot ltoes
    rhipjoint rfemur
    rfemur rtibia
    rtibia rfoot
    rfoot rtoes
    lowerback upperback
    upperback thorax
    thorax lowerneck lclavicle rclavicle
    lowerneck upperneck
    upperneck head
    lclavicle lhumerus
    lhumerus lradius
    lradius lwrist
    lwrist lhand lthumb
    lhand lfingers
    rclavicle rhumerus
    rhumerus rradius
    rradius rwrist
    rwrist rhand rthumb
    rhand rfingers
  end

#!OML:ASF E:\I on waltz\AllaLogoMonkeySwing\Project 1\Capture day 1\Session 1\Subject1.ASF
:FULLY-SPECIFIED
:DEGREES
128
root 1.23749 8.85613 -1.70567 -31.6265 0.30232 1.66262
lowerback 29.1957 1.64047 -2.25671
upperback 9.29239 1.57983 1.23544
thorax -5.71886 0.742474 2.14688
lowerneck -13.1743 3.84757 2.16176
upperneck 8.31084 5.49298 -6.20199
head 4.88239 2.3625 -1.83351
rclavicle -1.20327e-014 -8.74653e-015
rhumerus -28.5062 16.2573 -91.6496
rradius 82.9024
rwrist 3.66733
rhand -27.6727 -39.8146
rfingers 7.12502
rthumb -1.06981 -69.7917
lclavicle -1.20327e-014 -8.74653e-015
lhumerus -32.2159 -7.9282 98.1027
lradius 85.1941
lwrist -0.765329
lhand -24.3202 -34.7874
lfingers 7.12502
lthumb 2.1681 -4.81871
rfemur -65.1245 -18.7765 19.0369
rtibia 116.484
rfoot -20.0393 0.750659
rtoes 27.7165
lfemur -61.8484 24.9606 -16.6923
ltibia 116.177
lfoot -28.0098 -16.41
ltoes -7.0503
129
root 1.23619 8.85437 -1.70355 -31.5997 0.264377 1.6475
lowerback 29.1831 1.64509 -2.27043
upperback 9.33661 1.58236 1.24195
thorax -5.66384 0.74232 2.16171
lowerneck -13.1362 3.88661 2.18033
upperneck 8.31372 5.54192 -6.1955
head 4.87936 2.38818 -1.83087
rclavicle -3.19919e-015 9.54166e-015
rhumerus -28.4741 16.0704 -91.6433
rradius 82.8357
rwrist 3.69808
rhand -28.0007 -39.1533
rfingers 7.12502
rthumb -1.38657 -69.1285
lclavicle -3.19919e-015 9.54166e-015
lhumerus -32.1964 -7.72309 98.0916
lradius 85.333
lwrist -0.558414
lhand -24.1881 -34.8007
lfingers 7.12502
lthumb 2.29573 -4.8333
rfemur -65.1671 -18.76 19.0992
rtibia 116.49
rfoot -20.0624 0.709321
rtoes 27.5413
lfemur -61.8845 25.0338 -16.6683
ltibia 116.194
lfoot -28.0036 -16.3738
ltoes -7.14678
130
root 1.23603 8.85425 -1.70202 -31.6206 0.199507 1.58728
lowerback 29.2127 1.65182 -2.20762
upperback 9.40432 1.61044 1.27614
thorax -5.60278 0.754597 2.15433
lowerneck -13.1567 3.9153 2.17453
upperneck 8.36877 5.58754 -6.21921
head 4.90241 2.40732 -1.83275
rclavicle -1.26787e-014 -3.97569e-015
rhumerus -28.4421 15.8284 -91.6553
rradius 83.0644
rwrist 4.18537
rhand -27.4352 -39.3173
rfingers 7.12502
rthumb -0.840453 -69.2953
lclavicle -1.26787e-014 -3.97569e-015
lhumerus -32.185 -7.49799 98.1959
lradius 85.4785
lwrist -0.44782
lhand -24.2418 -35.0213
lfingers 7.12502
lthumb 2.24382 -5.05333
rfemur -65.1404 -18.7357 19.1976
rtibia 116.491
rfoot -20.0859 0.698989
rtoes 27.6849
lfemur -61.8627 25.1431 -16.5584
ltibia 116.225
lfoot -28.0228 -16.3654
ltoes -7.27506
131
root 1.23706 8.85283 -1.70152 -31.6528 0.174379 1.54952
lowerback 29.2738 1.66066 -2.19543
upperback 9.46971 1.62691 1.31611
thorax -5.55959 0.760969 2.18607
lowerneck -13.1676 3.93051 2.17338
upperneck 8.40786 5.6168 -6.27163
head 4.91932 2.4172 -1.84592
rclavicle 9.13167e-015 -2.78299e-015
rhumerus -28.3464 15.5275 -91.6372
rradius 83.0846
rwrist 4.44134
rhand -27.4526 -39.1092
rfingers 7.12502
rthumb -0.857213 -69.0872
lclavicle 9.13167e-015 -2.78299e-015
lhumerus -32.1886 -7.20074 98.3411
lradius 85.6487
lwrist -0.56252
lhand -24.2586 -35.0977
lfingers 7.12502
lthumb 2.22762 -5.12958
rfemur -65.0934 -18.7407 19.2268
rtibia 116.49
rfoot -20.0979 0.72407
rtoes 27.8038
lfemur -61.8395 25.1786 -16.4943
ltibia 116.258
lfoot -28.0517 -16.3736
ltoes -7.23062
132
root 1.23718 8.85125 -1.70151 -31.6367 0.161094 1.5633
lowerback 29.2758 1.67883 -2.25563
upperback 9.54005 1.634 1.32866
thorax -5.4833 0.762047 2.23299
lowerneck -13.1649 3.94394 2.21313
upperneck 8.37923 5.62949 -6.30045
head 4.91254 2.42346 -1.86037
rclavicle -4.47266e-016 -5.1684e-015
rhumerus -28.2453 15.3004 -91.6835
rradius 83.232
rwrist 4.51681
rhand -27.3903 -39.1859
rfingers 7.12502
rthumb -0.797025 -69.1642
lclavicle -4.47266e-016 -5.1684e-015
lhumerus -32.1131 -6.94883 98.4149
lradius 85.7997
lwrist -0.779817
lhand -24.2142 -34.9804
lfingers 7.12502
lthumb 2.27051 -5.01271
rfemur -65.1417 -18.7312 19.2273
rtibia 116.502
rfoot -20.0575 0.750287
rtoes 27.8821
lfemur -61.8664 25.1789 -16.5051
ltibia 116.275
lfoot -28.0063 -16.3863
ltoes -6.9722
133
root 1.23688 8.84931 -1.69932 -31.6002 0.136778 1.57206
lowerback 29.2437 1.69711 -2.29263
upperback 9.60866 1.64778 1.33147
thorax -5.3927 0.766597 2.25387
lowerneck -13.0925 3.9557 2.26983
upperneck 8.24431 5.62845 -6.30629
head 4.86042 2.42853 -1.87331
rclavicle -3.10601e-016 -9.14409e-015
rhumerus -28.1939 14.8615 -91.7795
rradius 83.4231
rwrist 4.70985
rhand -27.2509 -39.0274
rfingers 7.12502
rthumb -0.662422 -69.0061
lclavicle -3.10601e-016 -9.14409e-015
lhumerus -32.0234 -6.77881 98.4822
lradius 85.9033
lwrist -1.03706
lhand -24.2834 -34.9759
lfingers 7.12502
lthumb 2.20367 -5.00752
rfemur -65.2279 -18.71 19.2543
rtibia 116.534
rfoot -20.0128 0.808546
rtoes 28.131
lfemur -61.9141 25.2111 -16.5073
ltibia 116.307
lfoot -28.0329 -16.3607
ltoes -7.00441
134
root 1.23705 8.84757 -1.69617 -31.5544 0.12104 1.54054
lowerback 29.2111 1.68887 -2.29872
upperback 9.64581 1.63727 1.3475
thorax -5.33571 0.760068 2.27933
lowerneck -12.9341 3.97304 2.32908
upperneck 8.12062 5.63745 -6.3231
head 4.79856 2.43933 -1.89053
rclavicle 6.08778e-016 2.38542e-015
rhumerus -28.2772 14.3526 -91.9712
rradius 83.713
rwrist 4.94721
rhand -27.1157 -38.7998
rfingers 7.12502
rthumb -0.531793 -68.7789
lclavicle 6.08778e-016 2.38542e-015
lhumerus -31.9906 -6.56129 98.5854
lradius 85.959
lwrist -1.24048
lhand -24.3813 -35.1607
lfingers 7.12502
lthumb 2.1091 -5.1914
rfemur -65.2744 -18.7008 19.3105
rtibia 116.554
rfoot -20.0028 0.822097
rtoes 28.1587
lfemur -61.9897 25.2157 -16.4914
ltibia 116.352
lfoot -28.074 -16.339
ltoes -7.11716
